<svg version="1.1" id="Layer_1" xmlns="http://www.w3.org/2000/svg" xmlns:xlink="http://www.w3.org/1999/xlink" x="0px" y="0px"
	 width="100%" viewBox="0 0 288 304" enable-background="new 0 0 288 304" xml:space="preserve">
<path fill="#000000" opacity="1.000000" stroke="none" 
	d="
M289.000000,186.535355 
	C285.071289,191.367630 284.005310,197.094696 282.105682,202.332443 
	C278.325989,212.753693 272.625366,221.993332 266.132660,230.829926 
	C254.800369,246.253189 240.423599,258.393341 224.034103,267.936066 
	C211.906036,274.997559 198.887405,280.018188 184.896896,282.873718 
	C170.604614,285.790894 156.331497,287.251068 141.868317,286.352844 
	C128.164795,285.501862 114.922867,282.540253 101.953072,277.601105 
	C92.648987,274.057922 84.038048,269.373962 75.518829,264.533173 
	C67.164688,259.786224 59.933727,253.279327 52.926426,246.679260 
	C47.632874,241.693344 43.148087,235.958252 38.749725,230.175659 
	C30.784233,219.703262 25.319977,208.001297 20.510685,195.767715 
	C14.461926,180.381256 13.445992,164.501495 13.732729,148.389023 
	C13.996269,133.580032 16.868649,119.402267 22.416645,105.407257 
	C29.744669,86.922089 40.706181,71.340042 54.892231,57.821434 
	C64.092834,49.053711 74.367905,41.754105 85.651421,35.707325 
	C96.794930,29.735567 108.921883,26.481428 120.621971,22.140556 
	C125.639000,20.279179 131.729996,20.205994 137.268616,19.906427 
	C156.183533,18.883392 175.286697,18.730133 193.515381,24.563145 
	C210.838013,30.106224 227.297012,38.119076 241.432281,49.727417 
	C257.603882,63.008053 271.098999,78.767494 280.070465,97.928520 
	C282.240906,102.564102 283.692230,107.547745 285.309174,112.426033 
	C286.052917,114.669899 286.918243,116.784218 288.727295,118.795959 
	C289.000000,123.356903 289.000000,127.713806 288.690735,132.409698 
	C287.369751,128.325882 285.671143,124.026886 284.714417,119.682289 
	C281.651123,105.771835 274.772095,93.804710 267.138550,81.529839 
	C263.601227,84.950996 258.156342,83.775604 254.532730,87.547821 
	C256.779785,92.081032 260.086853,96.448753 261.140228,101.305290 
	C264.440704,116.522194 270.656616,131.260712 269.443512,147.291504 
	C269.291962,149.294022 269.983093,150.608536 272.140259,150.563843 
	C277.761993,150.447388 283.416321,151.240479 289.000000,150.000000 
	C289.000000,151.066666 289.000000,152.133347 288.619446,153.490723 
	C283.102783,153.674423 277.966370,153.580612 272.830719,153.454819 
	C270.270905,153.392105 269.164032,154.649048 269.370361,157.140823 
	C270.688812,173.061371 265.168182,187.812088 261.739746,202.943100 
	C261.069489,205.901260 256.681244,208.120316 259.256195,211.370361 
	C261.269470,213.911453 265.277283,212.356216 268.135895,213.830231 
	C272.323456,215.989517 274.561493,213.416687 276.178894,210.052109 
	C279.831818,202.453171 282.143127,194.358658 284.970337,186.450409 
	C286.560669,182.001816 286.786469,177.205490 289.000000,173.000000 
	C289.000000,177.356903 289.000000,181.713806 289.000000,186.535355 
M37.747925,220.522125 
	C36.511681,222.341461 37.033043,223.871384 38.327732,225.471283 
	C40.502151,228.158249 42.235775,231.261307 44.673706,233.662521 
	C48.942165,237.866638 53.603504,241.671829 58.257793,245.783340 
	C58.434959,241.322952 60.194912,236.438049 56.357471,231.841461 
	C54.785160,229.958130 53.571999,227.716278 52.487831,225.494812 
	C48.829842,217.999588 48.884220,217.993103 40.922138,219.858398 
	C39.981884,220.078690 38.964653,219.970413 38.267666,219.365585 
	C40.585278,217.229553 44.205292,217.222733 46.467274,214.375687 
	C44.068577,209.662216 42.964462,204.464417 41.213017,199.487701 
	C37.298908,188.365753 34.213604,177.023193 33.740993,165.228943 
	C33.213982,152.077118 35.492950,153.617599 21.521265,153.335846 
	C17.217033,153.249039 16.539001,155.077347 16.247519,158.974411 
	C14.987644,175.818710 21.376486,190.881256 27.095385,205.984039 
	C29.142492,211.390152 31.308510,217.743958 37.747925,220.522125 
M153.891739,225.467682 
	C154.343811,230.838577 152.976791,236.292755 154.139389,241.800140 
	C164.697342,239.919479 174.513336,237.271469 184.783798,236.141510 
	C199.906906,234.477707 214.544083,235.703400 229.225861,238.574036 
	C235.500168,239.800797 235.610123,239.939590 235.613037,233.429123 
	C235.624191,208.608734 235.618790,183.788361 235.599686,158.967972 
	C235.593552,151.016327 235.692123,150.587997 228.049957,148.327377 
	C220.176376,145.998291 211.912781,145.826187 204.005768,148.226242 
	C199.996857,149.443085 196.341965,150.176178 192.441605,148.541718 
	C188.213913,146.770081 183.878143,146.502548 179.301895,146.708267 
	C174.426712,146.927414 169.917542,148.489502 165.224838,149.291550 
	C155.847336,150.894287 153.332108,153.655090 153.424728,163.107788 
	C153.625198,183.564148 153.744308,204.021271 153.891739,225.467682 
M125.974327,236.609100 
	C134.082275,237.183029 141.615799,240.453842 149.621490,241.867477 
	C150.959763,239.919617 150.585159,237.873444 150.587753,235.932526 
	C150.613159,216.956696 150.480042,197.979431 150.693527,179.005981 
	C150.742249,174.674881 149.168228,172.632263 145.170868,172.099197 
	C143.273392,174.151855 143.887177,176.860794 143.074341,179.337936 
	C138.571503,179.028351 138.507828,174.593643 136.641205,172.372101 
	C135.038773,170.464951 139.408676,169.731155 141.288300,167.958191 
	C138.687881,168.219070 138.361862,165.521271 136.288589,165.471664 
	C134.831039,165.436783 134.355377,164.220779 134.874817,162.919434 
	C135.447464,161.484787 136.804611,161.445694 137.767990,162.186508 
	C140.113892,163.990479 142.286667,163.861404 144.640579,162.289337 
	C145.658890,161.609253 146.916870,161.434921 147.800308,162.514938 
	C148.626862,163.525421 148.419067,164.641266 147.684311,165.732895 
	C147.183716,166.476608 145.899445,166.867737 146.477051,168.253891 
	C148.943146,169.015015 150.265793,168.258743 150.253174,165.499069 
	C150.246353,164.007248 150.174393,162.479385 150.452042,161.029083 
	C151.474075,155.690567 149.307419,152.392700 144.261230,150.715683 
	C133.406326,147.108185 122.543060,144.820297 111.200424,148.875656 
	C108.086914,149.988846 104.473007,150.150421 101.518257,148.244202 
	C98.768974,146.470535 95.861755,146.384247 92.912216,146.505615 
	C87.938072,146.710358 82.950836,147.003906 78.014091,147.620361 
	C69.318245,148.706238 67.956772,150.315735 67.957687,158.900421 
	C67.960091,181.536636 68.007812,204.172852 68.035530,226.809067 
	C68.040558,230.914764 68.036247,235.020462 68.036247,239.092575 
	C69.771461,240.102554 71.374611,239.544708 72.929901,238.997360 
	C81.975204,235.814148 91.533257,236.382828 100.849854,235.241058 
	C108.980186,234.244690 117.078300,235.724686 125.974327,236.609100 
M40.391506,116.985550 
	C40.239071,118.301689 40.352879,119.720512 39.891277,120.917419 
	C36.740475,129.087326 37.140568,137.853149 35.538795,146.278656 
	C35.211021,148.002777 34.910744,150.503860 37.608570,150.451431 
	C46.361546,150.281296 55.191345,151.876938 63.861938,149.352615 
	C66.475815,148.591599 67.517693,147.178925 67.663376,144.402298 
	C67.896606,139.957260 68.769119,135.549973 69.156441,131.107986 
	C70.149490,119.719101 71.236374,108.359879 75.101158,97.479187 
	C75.768814,95.599525 75.233902,94.271088 73.103867,93.746017 
	C67.646957,92.400810 62.236954,90.850075 56.749954,89.647202 
	C52.800308,88.781342 50.142517,89.854790 48.148346,94.143257 
	C44.831825,101.275459 44.081802,109.208565 40.391506,116.985550 
M233.468491,118.085213 
	C234.449554,126.586212 235.849304,135.068680 236.226807,143.596390 
	C236.403244,147.582489 238.027374,148.797928 241.251938,149.509796 
	C248.153519,151.033371 255.146973,150.690353 262.119568,150.559769 
	C267.756439,150.454224 268.276398,149.620605 267.241943,143.874649 
	C265.723755,135.441559 265.047577,126.920334 262.865723,118.525703 
	C260.490570,109.387268 257.730042,100.511169 253.692841,92.008553 
	C252.851517,90.236702 251.421707,88.619644 249.499756,89.064125 
	C243.593033,90.430145 237.402359,90.279449 231.696609,92.852158 
	C228.219238,94.420090 227.547058,96.708450 229.183701,99.556274 
	C232.372147,105.104263 231.953796,111.418228 233.468491,118.085213 
M48.648300,211.918304 
	C51.126347,215.712982 54.075363,212.265945 56.750290,212.270279 
	C58.830311,212.273636 58.642323,209.905289 58.644623,208.262680 
	C58.667908,191.630829 58.609821,174.998489 58.730663,158.367432 
	C58.754154,155.134659 57.376644,153.753586 54.380466,153.681656 
	C49.229660,153.557983 44.076935,153.516403 38.925331,153.422821 
	C36.036831,153.370361 35.115227,154.974899 35.393795,157.577911 
	C35.693096,160.374710 36.097893,163.161530 36.341770,165.962708 
	C37.716568,181.753479 42.092323,196.744324 48.648300,211.918304 
M36.531269,84.795753 
	C34.811699,87.391350 33.116665,90.003593 31.368114,92.579514 
	C25.292414,101.530037 22.952629,111.981445 19.679132,122.031136 
	C17.947544,127.347160 16.271801,132.784332 16.366547,138.489563 
	C16.600515,152.578430 14.028721,150.298935 29.043921,150.694412 
	C32.516338,150.785889 33.761059,149.432205 33.667233,145.982178 
	C33.183495,128.194229 39.321625,111.801552 44.910603,95.373558 
	C47.460285,87.879128 47.106178,86.343643 39.140102,84.659378 
	C38.504093,84.524895 37.811913,84.656105 36.531269,84.795753 
M102.411713,112.171303 
	C101.588455,109.674171 99.966637,107.134026 100.098389,104.688339 
	C100.433441,98.468330 97.047806,96.707863 91.815002,95.912193 
	C89.321281,95.533005 86.845779,95.700134 84.399742,95.367744 
	C80.454323,94.831589 78.338058,96.353882 77.061195,100.171982 
	C72.560356,113.630478 71.476311,127.588135 70.545197,141.585571 
	C70.490311,142.410721 70.495583,143.257370 70.616608,144.072693 
	C70.809776,145.373886 71.616516,146.377747 72.954239,146.141724 
	C79.242424,145.032303 85.546555,144.104782 92.265320,144.486816 
	C85.022415,129.540100 86.905563,122.881775 100.215187,114.398956 
	C100.906151,113.958572 101.477470,113.330460 102.411713,112.171303 
M230.606812,115.641731 
	C229.809570,108.369911 226.797028,101.723129 224.850830,94.081779 
	C219.848206,95.975685 214.873688,95.155670 209.964676,95.538086 
	C207.922119,95.697197 204.613617,96.338364 205.198257,98.737175 
	C206.532089,104.209908 203.153915,107.740616 200.865692,111.614540 
	C205.794861,116.317650 213.739471,116.838310 215.570770,124.575424 
	C217.155121,131.269257 216.713074,137.588531 212.561935,144.021362 
	C218.239304,144.536530 223.281784,145.265823 228.329605,145.305008 
	C230.101089,145.318771 233.042053,144.805450 232.707474,141.655045 
	C231.818939,133.288574 232.898788,124.760406 230.606812,115.641731 
M247.022476,173.501129 
	C247.006882,183.464569 247.039062,193.428421 246.950806,203.391220 
	C246.918137,207.077454 248.897522,208.829285 252.196182,209.535126 
	C255.792114,210.304581 256.588593,207.698105 257.672424,205.157028 
	C261.390564,196.439789 262.912842,187.113235 265.040192,177.991257 
	C266.568573,171.437729 266.847778,164.585037 267.553040,157.852051 
	C267.769836,155.782181 267.484070,153.691193 264.578491,153.737518 
	C260.097015,153.808945 255.615814,153.905807 251.135239,154.020523 
	C248.538208,154.087006 247.202591,155.345581 247.204239,158.057999 
	C247.207169,162.872665 247.094467,167.687408 247.022476,173.501129 
M185.946335,120.412956 
	C179.659775,125.296684 178.849792,130.882660 181.412247,135.688614 
	C186.953979,146.082275 196.829254,150.070145 207.563049,143.054352 
	C215.138351,138.102982 216.178787,129.534409 212.092072,123.117020 
	C207.735794,116.276367 194.364410,111.947945 185.946335,120.412956 
M115.841522,117.955002 
	C113.969643,116.152534 111.409386,116.665665 109.213379,116.234543 
	C102.792229,114.973907 97.536247,117.755325 93.309624,122.324051 
	C90.403755,125.465126 90.213570,134.840546 92.524330,138.792770 
	C95.132874,143.254303 103.396423,146.987900 108.464661,146.471497 
	C117.005112,145.601349 122.493217,140.756058 124.013466,132.816696 
	C125.161049,126.823608 121.629784,121.755196 115.841522,117.955002 
M127.820030,144.641754 
	C129.121811,144.824677 130.458511,144.877472 131.718674,145.215576 
	C135.141113,146.133820 136.698120,145.054031 136.671478,141.364136 
	C136.583923,129.244263 136.590881,117.122993 136.680115,105.003136 
	C136.699692,102.343742 135.536865,101.258675 133.099228,100.527840 
	C127.742218,98.921730 122.325783,99.587585 116.868675,99.293877 
	C115.482201,102.531311 116.059273,106.074066 113.615501,108.781998 
	C111.258842,111.393379 112.187126,113.313408 115.486359,114.787209 
	C122.970970,118.130684 127.020164,123.696472 126.443665,132.361145 
	C126.153275,136.725769 124.714783,140.313965 121.608215,143.362350 
	C123.421150,144.820648 125.284500,144.487015 127.820030,144.641754 
M170.409805,144.603500 
	C174.446136,145.844360 178.224854,143.698654 183.132996,144.723068 
	C178.973297,137.750229 176.059204,132.096634 179.096512,124.735245 
	C182.004776,117.686577 188.258591,115.386169 194.594772,112.149620 
	C189.981140,108.485573 188.498550,103.977547 187.543747,99.048920 
	C185.614014,99.048920 183.877655,98.703171 182.345810,99.116104 
	C178.330902,100.198372 173.133881,97.477669 170.421066,100.597420 
	C167.651749,103.782211 169.455841,108.902542 169.488220,113.147079 
	C169.566528,123.414330 168.647446,133.706161 170.409805,144.603500 
M93.519005,85.382118 
	C91.360619,85.382149 89.193390,85.507339 87.045723,85.355667 
	C82.827576,85.057747 80.892303,87.013329 80.876091,91.099609 
	C88.555794,95.891945 103.344627,95.664925 108.460487,90.547630 
	C111.057434,92.362442 111.991318,96.146461 115.858597,96.657265 
	C120.954979,97.330429 126.052727,97.447281 131.164688,97.714363 
	C135.743057,97.953560 136.883530,96.033859 136.736725,91.856010 
	C136.602402,88.033081 136.689072,85.132721 131.339493,85.275887 
	C119.063095,85.604454 106.771988,85.382973 93.519005,85.382118 
M207.057205,93.882660 
	C210.998520,93.448502 214.932800,92.924454 218.883865,92.614700 
	C221.167923,92.435654 223.505417,92.398438 223.246109,89.290939 
	C223.022964,86.616859 221.453644,85.325874 218.551865,85.346283 
	C204.117584,85.447815 189.682358,85.408012 175.247467,85.431366 
	C174.587814,85.432426 173.927429,85.555061 173.268951,85.634041 
	C168.558685,86.199020 169.347870,89.728409 169.431290,92.830917 
	C169.514221,95.914619 170.666565,97.973381 174.244659,97.602577 
	C177.693573,97.245163 181.164749,97.065193 184.597183,96.595520 
	C189.514633,95.922646 195.006058,96.183754 196.739685,89.313156 
	C199.652191,92.417191 201.997467,95.455704 207.057205,93.882660 
M139.310425,242.015869 
	C115.090034,235.510391 67.128365,238.085175 63.117508,246.452591 
	C90.207794,245.647141 117.077827,243.526215 144.050156,244.835648 
	C144.071182,244.348572 144.092209,243.861481 144.113235,243.374405 
	C142.758469,242.989029 141.403717,242.603638 139.310425,242.015869 
M219.880707,239.378128 
	C199.178513,235.580902 178.980698,238.509903 158.339584,243.697998 
	C161.576874,244.967484 237.019562,244.922607 239.176834,243.321823 
	C232.570908,241.963821 226.782974,239.866104 219.880707,239.378128 
M249.924957,78.651421 
	C252.936539,84.901749 257.838409,85.104973 264.883209,79.342438 
	C261.179779,71.259888 254.330994,65.689018 248.426041,59.502743 
	C244.884109,55.792068 240.942001,52.035320 236.129456,49.546757 
	C234.010208,48.450897 232.270767,48.386848 230.690125,49.925602 
	C228.882034,51.685760 230.474350,53.058182 231.413055,54.674183 
	C233.529984,58.318459 236.512161,60.156967 241.070526,59.779865 
	C240.763519,67.527306 245.713745,72.516083 249.924957,78.651421 
M150.221786,280.183350 
	C151.513031,267.069824 150.398209,268.041718 140.895569,268.382324 
	C137.572632,268.501404 136.504669,266.974823 136.626953,263.873016 
	C136.764511,260.383759 136.653885,256.884094 136.625046,253.389191 
	C136.610947,251.678238 136.373840,249.251389 134.339920,249.744797 
	C129.901459,250.821503 125.033470,249.468155 120.632835,252.065109 
	C123.064926,258.164062 127.333588,262.932495 130.237076,268.481598 
	C130.840958,269.635742 131.756119,270.718262 132.759277,271.556915 
	C137.801758,275.772339 141.742889,282.081726 150.221786,280.183350 
M52.657867,80.275574 
	C55.156300,74.238533 61.147549,70.434074 63.269421,64.285629 
	C65.467155,57.917362 73.434280,56.669125 75.078514,50.053848 
	C69.277916,46.446342 46.063366,66.257057 38.385212,81.438934 
	C39.807873,83.164543 42.271000,82.117783 43.833412,83.445625 
	C47.952957,86.946693 50.628437,85.365517 52.657867,80.275574 
M258.031281,236.548538 
	C260.528412,233.463974 263.077484,230.419800 265.513275,227.287521 
	C273.841766,216.577560 269.676361,216.633835 259.802673,214.370346 
	C257.413757,213.822708 256.304169,214.294189 255.210052,216.593582 
	C253.229828,220.755310 251.245163,224.913620 248.842804,228.909592 
	C245.600327,234.303055 246.473679,240.544174 246.389999,247.436386 
	C250.701172,243.437271 254.129181,240.257401 258.031281,236.548538 
M175.293900,250.433197 
	C171.037842,249.715576 169.183945,251.337753 169.490158,255.803345 
	C169.771301,259.903687 169.549866,264.038513 169.549866,268.482819 
	C165.498245,268.482819 162.056854,268.368744 158.628021,268.526733 
	C156.651779,268.617798 154.447617,268.898193 153.884262,271.358551 
	C153.177780,274.443970 152.879318,277.591705 154.140961,280.617615 
	C154.325607,281.060455 155.374771,281.569519 155.796967,281.417542 
	C158.548767,280.427002 161.647995,281.054688 164.216370,278.914429 
	C170.493271,273.683777 175.765640,267.731567 179.846603,260.608612 
	C184.381516,252.693344 184.546432,252.787827 175.293900,250.433197 
M123.055923,44.638828 
	C126.743439,38.116920 131.474991,32.315498 136.325897,26.548195 
	C121.085373,30.697300 110.329239,40.285355 100.723183,52.235474 
	C104.416222,54.427837 107.725044,53.090076 110.709122,53.917294 
	C115.364212,55.207733 119.287437,55.177685 120.320557,49.033375 
	C120.547066,47.686268 121.865639,46.522785 123.055923,44.638828 
M131.973221,274.508728 
	C126.744156,268.475952 122.528702,261.769623 118.901176,254.685181 
	C118.428299,253.761658 118.013687,252.504120 116.947960,252.783691 
	C112.091942,254.057602 106.783310,252.405197 101.669456,254.815628 
	C110.957169,267.311371 122.362274,275.822052 137.144516,281.043884 
	C136.808243,276.983551 133.785034,276.790009 131.973221,274.508728 
M198.570160,46.871387 
	C192.688614,38.887459 184.297516,34.090675 176.024094,29.152845 
	C174.888626,28.475161 173.506378,27.658468 172.469238,29.112778 
	C171.331985,30.707460 173.137451,31.289259 173.837982,32.308033 
	C177.505753,37.641983 181.357941,42.879505 184.603165,48.465900 
	C188.578934,55.309830 196.475967,56.714653 202.983704,51.069653 
	C201.647751,49.839031 200.327560,48.622940 198.570160,46.871387 
M194.006134,264.516541 
	C196.686050,261.647278 199.365982,258.778015 202.079910,255.872314 
	C198.440109,253.518280 193.180756,252.764954 188.491867,253.457367 
	C185.149033,253.950989 185.594925,257.159088 184.228943,259.016357 
	C179.047241,266.061798 175.300583,274.181793 168.210449,279.941986 
	C177.909103,276.889221 186.071976,271.565918 194.006134,264.516541 
M96.051071,52.487072 
	C98.009987,52.066277 98.954155,50.589634 100.057411,49.062832 
	C103.717690,43.997383 108.105736,39.630737 112.784271,35.445923 
	C115.211906,33.274483 119.511200,32.502174 120.065369,27.326773 
	C106.570854,33.091282 93.646271,38.304989 82.860725,49.022102 
	C87.707184,50.385643 91.514008,51.456680 96.051071,52.487072 
M196.363602,33.389484 
	C192.040390,31.205662 187.918884,28.454380 181.287918,28.016399 
	C183.683289,29.932861 185.052139,30.805262 186.142914,31.944031 
	C188.997513,34.924290 193.283249,35.975513 195.806824,39.438385 
	C198.996094,43.814678 203.790436,46.741238 206.759598,51.384243 
	C207.585541,52.675808 209.440125,52.894432 210.891205,52.528362 
	C214.175293,51.699879 217.391510,50.602406 221.057770,49.485645 
	C213.943588,42.096390 205.704132,37.475037 196.363602,33.389484 
M84.770882,257.531860 
	C92.972801,267.702942 104.856293,272.039703 116.173027,277.244049 
	C117.017517,277.632416 118.143578,277.039246 118.299599,275.165619 
	C112.468018,270.378998 106.712517,265.026886 101.171692,259.447174 
	C95.827759,254.065750 91.950783,253.499100 84.770882,257.531860 
M210.457977,264.853180 
	C213.610794,262.957336 217.177658,261.534729 219.118958,257.451233 
	C214.350739,256.261444 209.548111,253.118637 205.648468,256.767792 
	C197.906021,264.012970 190.703903,271.832214 182.045593,278.162262 
	C192.093338,275.412506 201.472595,271.402557 210.457977,264.853180 
M125.233994,55.604626 
	C127.879288,55.603191 130.525558,55.645168 133.169540,55.585522 
	C135.023819,55.543690 136.515106,54.733597 136.542343,52.708946 
	C136.629913,46.198586 136.574936,39.686302 136.574936,32.957588 
	C135.304672,33.243397 134.677628,33.190975 134.386932,33.478542 
	C128.920105,38.886433 125.554146,45.731258 121.828369,52.296158 
	C120.600449,54.459782 122.973137,54.905064 125.233994,55.604626 
M54.333008,83.549911 
	C53.995583,85.138641 53.098656,87.107994 55.704567,87.453796 
	C62.879139,88.405853 69.854332,90.261833 77.084503,92.290070 
	C77.568817,90.041290 77.972717,88.165909 78.423355,86.073532 
	C74.794792,84.900139 71.318420,85.259605 67.905861,85.679024 
	C64.816605,86.058708 63.587818,84.887154 63.648567,81.871460 
	C63.725296,78.062592 63.667088,74.250999 63.667088,70.440575 
	C59.932159,74.602867 56.308445,78.131088 54.333008,83.549911 
M169.445023,38.408932 
	C169.419769,42.379734 169.540817,46.358353 169.329132,50.319191 
	C169.106674,54.481701 170.914001,55.991112 174.960297,55.676502 
	C177.909485,55.447189 180.859573,55.557858 183.369873,53.247581 
	C181.886780,46.501072 176.593307,41.996460 173.330368,36.340725 
	C172.382324,34.697460 169.684097,34.175865 169.445023,38.408932 
M78.720078,59.611801 
	C82.376747,59.576267 86.035652,59.605049 89.689148,59.478153 
	C91.524483,59.414410 92.799370,58.383087 93.261841,56.539551 
	C93.544533,55.412636 93.021996,54.315365 92.084389,54.060036 
	C88.272758,53.022045 84.237816,51.094238 80.599693,51.630001 
	C77.242912,52.124325 73.593559,54.681519 72.460167,58.870205 
	C74.518234,60.241062 76.202759,59.586292 78.720078,59.611801 
M228.257034,262.547729 
	C227.768250,257.716003 223.601425,258.594788 221.953323,259.987823 
	C215.610489,265.348907 208.500488,269.552582 201.801041,274.464569 
	C211.387115,272.618561 219.359863,267.284332 228.257034,262.547729 
M207.741058,33.530540 
	C206.615921,33.592274 205.798630,32.186199 203.778534,33.207390 
	C211.152435,37.603657 217.524353,42.652798 223.956238,47.626850 
	C226.412796,49.526600 228.769867,48.266266 230.702133,45.456978 
	C227.310303,44.077702 225.012604,41.305115 222.067352,40.238964 
	C217.223724,38.485626 213.696442,34.159412 207.741058,33.530540 
M212.913620,54.349895 
	C211.864288,54.638916 210.356445,54.474648 210.726562,56.287251 
	C211.048965,57.866142 212.018600,59.260071 213.612289,59.306618 
	C219.084244,59.466438 224.563705,59.367996 230.677734,59.367996 
	C226.317917,52.212128 224.189819,51.337307 217.877304,53.151482 
	C216.451370,53.561291 214.986099,53.834179 212.913620,54.349895 
M62.727615,218.653107 
	C61.244034,197.876373 62.439999,177.042679 61.070534,156.254715 
	C61.070534,184.963669 61.070534,213.672638 61.070534,242.381592 
	C63.558823,234.945938 62.445377,227.226654 62.727615,218.653107 
M74.102448,73.503609 
	C72.488152,70.154549 75.948372,66.464287 73.582710,63.063644 
	C70.279091,63.276295 69.267677,65.352455 68.970314,68.016411 
	C68.696556,70.468941 68.468582,72.928680 68.307014,75.390923 
	C68.187180,77.217079 68.090080,79.199875 69.975731,80.233955 
	C71.594345,81.121597 73.231056,80.550606 74.532410,79.358063 
	C76.402557,77.644279 75.883377,75.848526 74.102448,73.503609 
M232.532120,256.375092 
	C233.808670,255.600891 235.365433,254.859360 234.964493,253.058228 
	C234.530807,251.110092 232.698730,251.489853 231.269379,251.398361 
	C226.853928,251.115677 222.437027,250.849731 218.017899,250.634003 
	C216.633514,250.566422 215.035706,250.156265 213.955566,252.819580 
	C220.058151,254.087540 225.943619,255.310410 232.532120,256.375092 
M88.749008,265.782288 
	C86.305222,263.808258 83.736397,261.967651 81.450699,259.824951 
	C78.853294,257.390045 77.273270,258.233521 75.640182,261.102356 
	C83.077026,266.787140 91.640022,269.783569 100.490845,274.165863 
	C97.319138,269.681183 91.714912,270.206390 88.749008,265.782288 
M66.308380,248.575516 
	C65.549049,248.716446 64.273170,248.300064 64.186516,249.256119 
	C64.039062,250.882858 65.348579,251.555893 66.802704,251.558197 
	C73.265030,251.568405 79.700073,251.347885 85.894722,248.608170 
	C79.418198,245.967178 73.215805,249.073227 66.308380,248.575516 
M53.974861,221.717331 
	C54.920353,224.011520 55.572815,226.525940 58.629456,228.218307 
	C58.629456,224.202942 58.701660,220.918945 58.608208,217.639679 
	C58.522671,214.638138 56.872402,214.093460 54.245205,214.994354 
	C49.462494,216.634415 52.877613,218.958313 53.974861,221.717331 
M239.992188,223.494293 
	C239.992188,205.157944 239.992188,186.821609 239.992188,168.485260 
	C239.807312,168.485962 239.622437,168.486664 239.437561,168.487366 
	C239.437561,191.557724 239.437561,214.628082 239.437561,237.698441 
	C239.623993,237.702499 239.810410,237.706558 239.996841,237.710617 
	C239.996841,233.303802 239.996841,228.896988 239.992188,223.494293 
M245.829926,87.051796 
	C247.443848,86.416687 250.081604,86.190018 249.372803,83.863701 
	C248.536591,81.119202 246.914490,78.472466 244.286682,76.863617 
	C243.568329,76.423820 242.745056,77.009460 242.178528,77.700996 
	C240.089630,80.250740 241.864899,85.954163 245.829926,87.051796 
M79.242432,47.704556 
	C82.905037,44.242470 88.150932,42.556091 91.203957,37.522717 
	C84.901909,37.903980 80.951065,41.614052 76.881874,44.718075 
	C74.315201,46.675953 76.353912,47.618591 79.242432,47.704556 
M97.259972,57.233303 
	C97.179962,60.073303 99.426323,59.398911 100.760750,59.191364 
	C105.420555,58.466625 110.313560,60.287910 114.844223,58.063702 
	C109.118256,56.234291 103.504021,53.608097 97.259972,57.233303 
M251.653885,217.322128 
	C252.400696,215.649597 253.337219,213.951584 251.266632,212.519241 
	C250.452835,211.956299 249.540482,211.315125 248.550049,211.882156 
	C246.816162,212.874878 247.000198,214.694534 247.074783,216.295654 
	C247.177139,218.492126 246.387848,220.828674 247.692719,223.023438 
	C250.463760,222.229828 250.324646,219.685135 251.653885,217.322128 
M227.994141,90.458557 
	C231.844452,89.570763 236.169067,89.934433 240.212830,86.085915 
	C235.871552,86.085915 232.750748,85.909996 229.660599,86.142197 
	C227.236816,86.324326 225.268646,87.246696 227.994141,90.458557 
M191.564194,59.368694 
	C196.115509,58.811329 200.863205,59.595085 205.234436,57.564953 
	C200.309464,54.836628 195.399384,56.220081 190.566086,57.384018 
	C189.518005,57.636410 190.128601,58.690353 191.564194,59.368694 
M227.333099,248.785187 
	C229.825012,248.839264 232.356247,248.634094 234.800156,249.004715 
	C239.082932,249.654205 239.060501,249.802124 240.666824,247.835083 
	C235.241364,248.247971 229.981537,248.318954 224.703110,248.463486 
	C225.342194,248.552307 225.981277,248.641129 227.333099,248.785187 
M241.088043,237.248352 
	C241.280640,237.918640 240.824036,238.949005 242.692261,239.120773 
	C242.417908,233.742706 242.149506,228.481155 241.881088,223.219604 
	C241.610168,223.224869 241.339233,223.230133 241.068298,223.235397 
	C241.068298,227.662109 241.068298,232.088806 241.088043,237.248352 
M208.149979,247.117798 
	C212.148193,249.232574 216.167053,247.446228 220.197617,246.788635 
	C216.309952,246.788635 212.422302,246.788635 208.149979,247.117798 
z"/>
<path fill="#000000" opacity="1.000000" stroke="none" 
	d="
M227.352676,189.697754 
	C227.836166,193.290390 226.120483,195.243393 223.166702,194.411346 
	C218.980423,193.232086 217.251480,195.568481 215.183914,198.251526 
	C213.984573,199.807877 212.933578,202.288071 210.446045,201.078430 
	C208.112259,199.626495 211.660522,197.270798 209.135040,196.129471 
	C207.973969,196.101364 207.906906,197.033707 207.658020,197.787262 
	C207.196213,199.185455 207.924088,201.655457 205.187881,201.112595 
	C202.852280,200.649216 203.718979,198.482361 203.584564,196.960663 
	C203.457581,195.523163 203.557297,194.065643 203.557297,192.515808 
	C201.791641,192.845825 202.121414,194.078522 201.854492,194.914673 
	C201.487106,196.065613 201.183212,197.219467 199.669159,197.196396 
	C197.806183,197.168015 197.764755,195.776962 197.570343,194.409653 
	C197.181503,191.675156 196.602493,188.955750 197.639999,186.152084 
	C199.037811,185.494843 200.413361,185.253113 201.448288,186.892334 
	C204.074661,191.052261 208.010559,190.911057 211.826920,189.515015 
	C216.158035,187.930664 220.748596,189.201202 225.044296,187.739105 
	C226.030609,187.403381 226.847122,188.370407 227.352676,189.697754 
z"/>
<path fill="#000000" opacity="1.000000" stroke="none" 
	d="
M157.200470,199.649963 
	C156.087341,194.594315 158.620117,192.119202 162.704727,190.810059 
	C165.561539,189.894440 168.512680,189.364166 171.540314,189.633179 
	C173.725998,189.827377 176.498306,188.779175 177.452148,191.906433 
	C178.163101,194.237335 178.080994,196.885147 176.190292,198.434219 
	C174.033661,200.201218 171.300140,200.046875 168.864044,198.384521 
	C168.462250,198.110352 168.064774,197.829834 167.472046,197.417953 
	C164.998154,201.667175 161.651184,202.638916 157.200470,199.649963 
z"/>
<path fill="#000000" opacity="1.000000" stroke="none" 
	d="
M185.015137,172.019104 
	C187.331467,171.966461 188.395660,170.922195 188.591354,168.962784 
	C188.722534,167.649506 189.290665,166.827911 190.725632,166.672699 
	C192.453644,166.485794 192.469498,168.188965 193.182236,168.716019 
	C196.543274,171.201340 197.520935,173.785278 195.167130,177.359756 
	C194.331192,178.629242 194.140335,181.054001 191.805710,180.086746 
	C189.931305,179.310165 190.833176,177.601105 191.244919,176.182007 
	C191.422272,175.570724 191.436096,174.911972 191.545380,174.121796 
	C188.875229,172.520630 187.479752,173.643616 186.566940,176.039978 
	C186.028625,177.453201 186.976868,179.853317 184.570068,180.020142 
	C182.012009,180.197479 183.003632,177.574371 182.237625,176.303482 
	C181.896286,175.737167 181.646927,175.115402 181.505661,174.825867 
	C180.445816,175.229218 180.110672,175.288254 179.857132,175.464615 
	C178.442291,176.448730 179.392288,180.567429 176.389038,178.910370 
	C174.356689,177.789017 175.120071,174.745544 176.763458,173.265182 
	C179.632385,170.680878 176.581970,168.863617 176.224411,166.710373 
	C178.372360,164.902008 180.356857,166.106216 182.187210,166.550354 
	C183.955231,168.128159 181.596069,171.291672 185.015137,172.019104 
z"/>
<path fill="#000000" opacity="1.000000" stroke="none" 
	d="
M185.198700,210.200409 
	C192.534790,208.991409 196.629547,210.461838 200.093369,215.431290 
	C195.806107,217.062225 192.130859,219.935242 187.191589,219.944962 
	C184.930756,219.949417 182.295013,221.370529 181.011719,218.772202 
	C179.653061,216.021240 180.432587,213.272491 183.226761,211.449463 
	C183.779373,211.088898 184.327927,210.722107 185.198700,210.200409 
z"/>
<path fill="#000000" opacity="1.000000" stroke="none" 
	d="
M207.298340,178.138306 
	C205.624878,180.356949 203.764557,181.172943 201.440628,180.238312 
	C198.954330,179.238388 199.368744,176.909149 199.717178,175.097687 
	C200.163101,172.779449 197.436646,169.954865 200.336060,168.240326 
	C203.820267,166.179947 207.937164,166.135193 211.809692,166.527939 
	C214.156357,166.765915 214.028793,169.543350 212.387695,170.054459 
	C208.200226,171.358643 208.770203,175.060486 207.298340,178.138306 
z"/>
<path fill="#000000" opacity="1.000000" stroke="none" 
	d="
M182.388855,192.730011 
	C183.781570,190.462708 184.265808,188.027924 186.533676,186.625259 
	C192.001389,189.635391 194.314987,194.454239 195.123611,200.294464 
	C192.425354,200.909821 192.425354,200.909821 187.605911,193.511414 
	C187.564011,195.271133 189.441925,197.105484 187.164886,198.432220 
	C185.460068,199.425537 183.431610,201.216980 181.728058,199.795502 
	C179.312668,197.779984 181.069748,195.269989 182.388855,192.730011 
z"/>
<path fill="#000000" opacity="1.000000" stroke="none" 
	d="
M170.785873,211.514755 
	C170.871323,209.402512 170.184906,207.225586 172.871384,206.880753 
	C174.978226,206.610306 175.206055,208.167831 175.399200,209.714127 
	C175.614151,211.434998 177.788101,211.377701 178.306976,212.804733 
	C176.679626,219.635986 176.679626,219.635986 173.025726,219.631454 
	C173.665863,216.694519 173.331985,213.955002 170.785873,211.514755 
z"/>
<path fill="#000000" opacity="1.000000" stroke="none" 
	d="
M215.346680,217.041595 
	C214.712906,218.531265 213.679443,219.613937 212.653549,218.462967 
	C210.991074,216.597794 211.499039,214.121460 211.966217,211.882065 
	C212.123367,211.128799 213.012482,210.510757 213.956802,210.899658 
	C215.451675,211.515274 215.585693,212.810944 215.452332,214.224533 
	C215.374832,215.045959 215.418320,215.878799 215.346680,217.041595 
z"/>
<path fill="#000000" opacity="1.000000" stroke="none" 
	d="
M205.537994,216.126312 
	C205.269424,217.346924 205.448669,218.580276 204.111664,218.665146 
	C203.184418,218.724014 202.436890,217.930405 202.441299,217.164597 
	C202.454315,214.899689 201.887054,212.352890 204.356003,210.701294 
	C206.416321,212.200699 205.019882,214.209763 205.537994,216.126312 
z"/>
<path fill="#000000" opacity="1.000000" stroke="none" 
	d="
M121.358643,216.073639 
	C120.304924,222.146851 119.222404,222.547897 112.000916,219.946350 
	C106.484520,225.239288 103.566536,224.723145 99.965813,217.601562 
	C96.977104,218.203400 94.453804,219.146729 95.000023,223.128571 
	C92.949150,223.591125 90.885574,224.314987 90.537430,221.130661 
	C90.384308,219.730026 89.365814,219.233383 88.208656,218.848389 
	C85.995369,218.111969 86.533966,216.236298 86.568436,214.643570 
	C86.604500,212.977386 87.616806,212.313370 89.232605,212.458344 
	C89.559219,212.487640 90.081398,212.551331 90.198769,212.381592 
	C96.383141,203.438324 98.265686,216.369553 103.077408,214.533295 
	C107.879013,211.238205 113.552254,212.933319 118.937279,212.652954 
	C120.965797,212.547348 121.366295,214.005127 121.358643,216.073639 
z"/>
<path fill="#000000" opacity="1.000000" stroke="none" 
	d="
M107.652473,165.724396 
	C110.605194,166.878052 113.498314,167.311829 115.560341,169.866013 
	C119.659843,164.740891 125.682045,167.004486 130.817581,165.775757 
	C132.147400,165.457581 133.431595,166.445862 133.569458,168.048904 
	C133.739044,170.020767 133.203568,171.863892 131.093536,172.413712 
	C127.708267,173.295837 124.230171,173.263748 123.709320,178.380844 
	C123.512718,180.312302 121.398888,179.042343 120.559006,177.133621 
	C118.563034,172.597519 110.774857,170.438110 106.823227,173.203522 
	C108.384209,174.713608 109.933151,176.212021 111.482094,177.710449 
	C111.188065,178.213547 110.894028,178.716660 110.599991,179.219757 
	C106.753883,176.376877 102.957062,177.169907 99.021744,179.387222 
	C100.280235,175.732712 100.641769,172.621750 100.784615,169.344040 
	C100.952950,165.481293 104.499870,165.925125 107.652473,165.724396 
z"/>
<path fill="#000000" opacity="1.000000" stroke="none" 
	d="
M118.874023,188.443146 
	C122.519348,187.374695 122.578201,188.773392 121.334702,191.312454 
	C120.141068,193.749695 117.461044,195.248993 116.588745,198.566895 
	C119.260063,198.231873 123.002419,194.423599 122.893822,200.531418 
	C120.219315,201.785187 117.693451,201.480835 115.072296,200.732407 
	C113.570000,200.303452 111.977882,199.186768 110.363838,200.520523 
	C109.236000,201.452484 107.892784,201.973831 106.808296,200.850555 
	C105.669212,199.670731 106.009308,198.030090 106.523232,196.589432 
	C107.270607,194.494293 108.570396,192.366028 105.299881,190.333481 
	C104.919205,194.162994 104.585289,197.522141 104.221039,201.186386 
	C99.320465,202.194809 96.148346,196.666412 96.160362,195.561920 
	C96.211342,190.876495 101.341576,189.103912 104.704910,187.820969 
	C111.603149,185.189621 109.979088,192.090149 111.126709,195.841980 
	C113.856865,193.240479 116.231606,190.977631 118.874023,188.443146 
z"/>
<path fill="#000000" opacity="1.000000" stroke="none" 
	d="
M80.997482,188.651154 
	C82.977661,190.148224 84.858322,189.862595 86.574989,189.350098 
	C88.004242,188.923386 89.196350,186.388504 90.760941,188.077850 
	C92.119957,189.545212 93.114235,191.787003 93.312851,193.781815 
	C93.560570,196.269791 93.042671,198.928146 91.168465,201.328339 
	C87.707672,198.765533 91.465385,194.042282 87.893166,192.002777 
	C82.635803,193.001022 81.921806,198.995102 78.183456,201.701538 
	C75.609993,198.961914 76.828606,196.769440 77.319954,194.582092 
	C77.686890,192.948563 78.117783,190.904968 75.777069,190.639709 
	C73.820488,190.417969 73.586456,192.205063 73.612045,193.816055 
	C73.643219,195.778366 73.619453,197.741562 73.619453,199.695740 
	C70.808594,199.315475 69.663399,196.153625 70.717110,191.490692 
	C71.523354,187.922852 74.818924,186.900070 80.997482,188.651154 
z"/>
<path fill="#000000" opacity="1.000000" stroke="none" 
	d="
M131.563812,218.091202 
	C131.442383,217.319489 131.330139,216.843033 131.179626,216.204056 
	C129.684509,216.428329 130.172974,217.639404 130.008774,218.406784 
	C129.802277,219.371826 129.799850,220.379562 129.609573,221.349274 
	C129.347214,222.686432 128.501724,223.376282 127.114784,223.139847 
	C125.896553,222.932175 125.739746,221.951309 125.576271,220.916885 
	C124.949341,216.949829 127.672249,213.211868 131.571442,212.672256 
	C136.313171,212.016068 140.729767,213.269104 145.048004,214.964172 
	C146.574478,215.563370 147.298615,216.809799 146.740967,218.413620 
	C145.260132,220.165115 143.482269,218.225891 142.159576,218.927902 
	C140.663727,220.101456 142.403809,223.445877 139.490402,223.055023 
	C136.173019,222.609955 137.927643,218.895844 136.499191,217.185837 
	C134.932022,218.950333 138.015610,223.332199 133.359848,223.121063 
	C130.216019,222.978485 131.731857,220.159271 131.563812,218.091202 
z"/>
<path fill="#000000" opacity="1.000000" stroke="none" 
	d="
M84.969910,168.955704 
	C84.744995,178.474609 81.607452,180.698776 70.724075,178.793716 
	C70.783722,175.650986 69.219711,171.964584 72.385117,169.632324 
	C76.030136,166.946686 80.280479,166.459625 84.757484,168.856323 
	C84.997482,168.992188 84.969910,168.955704 84.969910,168.955704 
z"/>
<path fill="#000000" opacity="1.000000" stroke="none" 
	d="
M73.443130,218.359207 
	C73.129555,219.747147 74.156395,221.012970 72.275360,222.337845 
	C69.555000,219.259171 70.224144,215.545731 71.153465,212.485626 
	C72.125755,209.284012 75.717606,209.064453 78.418770,209.790802 
	C83.852318,211.251938 80.702934,216.144363 82.057716,219.859726 
	C83.019928,220.696701 87.305344,219.908524 85.650566,222.939316 
	C83.268204,227.302704 79.982666,222.562790 77.292259,222.961304 
	C74.940575,219.359192 79.786835,215.244736 76.084641,212.028488 
	C72.523346,213.111710 74.130707,216.014099 73.443130,218.359207 
z"/>
<path fill="#000000" opacity="1.000000" stroke="none" 
	d="
M127.460785,187.779343 
	C129.430389,183.339676 131.528320,187.427414 132.864578,187.921219 
	C135.557541,188.916382 139.323227,189.900940 139.229477,194.022202 
	C137.256760,195.535645 136.379532,192.943893 134.826263,193.522964 
	C133.911133,195.798187 133.472046,198.186996 133.610794,200.722229 
	C128.404617,203.342453 130.485733,193.348862 125.545876,196.354095 
	C123.414909,192.685242 130.109650,191.604385 127.460785,187.779343 
z"/>
<path fill="#000000" opacity="1.000000" stroke="none" 
	d="
M85.011871,169.009888 
	C86.229546,166.059738 90.713257,164.119247 93.841347,165.810364 
	C96.417023,167.202805 97.566650,169.958466 96.771591,172.978683 
	C96.400360,174.388870 95.250313,175.580658 94.779045,176.981079 
	C94.078461,179.062988 92.839470,180.341461 90.740135,179.381973 
	C88.499519,178.357941 89.609734,176.462341 90.517532,175.159180 
	C92.000717,173.030029 90.156235,171.477356 90.064720,169.485046 
	C88.470055,169.378357 87.006302,169.280411 85.256226,169.069092 
	C84.969910,168.955704 84.997482,168.992188 85.011871,169.009888 
z"/>
</svg>